{
  "accessors": [
    {
      "bufferView": 2,
      "componentType": 5126,
      "count": 65533,
      "max": [
        65.98137664794922,
        47.367530822753906,
        80.24073791503906
      ],
      "min": [
        -398.6470947265625,
        -88.87189483642578,
        -100.81037139892578
      ],
      "type": "VEC3"
    },
    {
      "bufferView": 2,
      "byteOffset": 786396,
      "componentType": 5126,
      "count": 65533,
      "max": [
        0.9999998807907104,
        1.0,
        0.9999982118606567
      ],
      "min": [
        -0.999999463558197,
        -1.0,
        -1.0
      ],
      "type": "VEC3"
    },
    {
      "bufferView": 1,
      "componentType": 5126,
      "count": 65533,
      "max": [
        0.9999960064888,
        1.0
      ],
      "min": [
        0.0,
        0.0
      ],
      "type": "VEC2"
    },
    {
      "bufferView": 0,
      "componentType": 5125,
      "count": 97932,
      "type": "SCALAR"
    },
    {
      "bufferView": 2,
      "byteOffset": 1572792,
      "componentType": 5126,
      "count": 65533,
      "max": [
        66.5984878540039,
        47.367530822753906,
        80.24073028564453
      ],
      "min": [
        -403.07269287109375,
        -88.87190246582031,
        -102.14018249511719
      ],
      "type": "VEC3"
    },
    {
      "bufferView": 2,
      "byteOffset": 2359188,
      "componentType": 5126,
      "count": 65533,
      "max": [
        0.999995768070221,
        1.0,
        1.0
      ],
      "min": [
        -0.9999974966049194,
        -1.0,
        -0.9999984502792358
      ],
      "type": "VEC3"
    },
    {
      "bufferView": 1,
      "byteOffset": 524264,
      "componentType": 5126,
      "count": 65533,
      "max": [
        0.9999960064888,
        1.0
      ],
      "min": [
        0.0,
        0.0
      ],
      "type": "VEC2"
    },
    {
      "bufferView": 0,
      "byteOffset": 391728,
      "componentType": 5125,
      "count": 96582,
      "type": "SCALAR"
    },
    {
      "bufferView": 2,
      "byteOffset": 3145584,
      "componentType": 5126,
      "count": 16414,
      "max": [
        57.89625930786133,
        44.92573547363281,
        79.89661407470703
      ],
      "min": [
        -395.6612243652344,
        -88.87190246582031,
        -104.0174560546875
      ],
      "type": "VEC3"
    },
    {
      "bufferView": 2,
      "byteOffset": 3342552,
      "componentType": 5126,
      "count": 16414,
      "max": [
        0.9999983310699463,
        1.0,
        0.9999620914459229
      ],
      "min": [
        -0.9999972581863403,
        -1.0,
        -0.9999706149101257
      ],
      "type": "VEC3"
    },
    {
      "bufferView": 1,
      "byteOffset": 1048528,
      "componentType": 5126,
      "count": 16414,
      "max": [
        0.9999930262565613,
        1.0002199411392212
      ],
      "min": [
        0.0006520000169984996,
        0.0
      ],
      "type": "VEC2"
    },
    {
      "bufferView": 0,
      "byteOffset": 778056,
      "componentType": 5125,
      "count": 25617,
      "type": "SCALAR"
    },
    {
      "bufferView": 2,
      "byteOffset": 3539520,
      "componentType": 5126,
      "count": 3136,
      "max": [
        33.997718811035156,
        44.921226501464844,
        72.48393249511719
      ],
      "min": [
        -394.8345642089844,
        -88.08184051513672,
        -104.0174560546875
      ],
      "type": "VEC3"
    },
    {
      "bufferView": 2,
      "byteOffset": 3577152,
      "componentType": 5126,
      "count": 3136,
      "max": [
        0.9999619722366333,
        1.0,
        0.9999780058860779
      ],
      "min": [
        -0.9999619722366333,
        -0.9999997615814209,
        -0.9999930262565613
      ],
      "type": "VEC3"
    },
    {
      "bufferView": 1,
      "byteOffset": 1179840,
      "componentType": 5126,
      "count": 3136,
      "max": [
        0.9999290108680725,
        0.9999979734420776
      ],
      "min": [
        0.0003659999929368496,
        0.0
      ],
      "type": "VEC2"
    },
    {
      "bufferView": 0,
      "byteOffset": 880524,
      "componentType": 5125,
      "count": 4869,
      "type": "SCALAR"
    }
  ],
  "asset": {
    "extras": {
      "author": "haohao2210 (https://sketchfab.com/haohao2210)",
      "license": "CC-BY-NC-SA-4.0 (http://creativecommons.org/licenses/by-nc-sa/4.0/)",
      "source": "https://sketchfab.com/3d-models/space-ship-ee198accef9a418bb3b570ec31f9597c",
      "title": "Space_ship"
    },
    "generator": "Sketchfab-14.69.0",
    "version": "2.0"
  },
  "bufferViews": [
    {
      "buffer": 0,
      "byteLength": 900000,
      "name": "floatBufferViews",
      "target": 34963
    },
    {
      "buffer": 0,
      "byteLength": 1204928,
      "byteOffset": 900000,
      "byteStride": 8,
      "name": "floatBufferViews",
      "target": 34962
    },
    {
      "buffer": 0,
      "byteLength": 3614784,
      "byteOffset": 2104928,
      "byteStride": 12,
      "name": "floatBufferViews",
      "target": 34962
    }
  ],
  "buffers": [
    {
      "byteLength": 5719712,
      "uri": "scene.bin"
    }
  ],
  "images": [
    {
      "uri": "textures/wire_224198087_baseColor.png"
    }
  ],
  "materials": [
    {
      "doubleSided": true,
      "name": "wire_224198087",
      "pbrMetallicRoughness": {
        "baseColorTexture": {
          "index": 0
        },
        "metallicFactor": 0.0,
        "roughnessFactor": 0.6
      }
    }
  ],
  "meshes": [
    {
      "name": "Object_0",
      "primitives": [
        {
          "attributes": {
            "NORMAL": 1,
            "POSITION": 0,
            "TEXCOORD_0": 2
          },
          "indices": 3,
          "material": 0,
          "mode": 4
        }
      ]
    },
    {
      "name": "Object_1",
      "primitives": [
        {
          "attributes": {
            "NORMAL": 5,
            "POSITION": 4,
            "TEXCOORD_0": 6
          },
          "indices": 7,
          "material": 0,
          "mode": 4
        }
      ]
    },
    {
      "name": "Object_2",
      "primitives": [
        {
          "attributes": {
            "NORMAL": 9,
            "POSITION": 8,
            "TEXCOORD_0": 10
          },
          "indices": 11,
          "material": 0,
          "mode": 4
        }
      ]
    },
    {
      "name": "Object_3",
      "primitives": [
        {
          "attributes": {
            "NORMAL": 13,
            "POSITION": 12,
            "TEXCOORD_0": 14
          },
          "indices": 15,
          "material": 0,
          "mode": 4
        }
      ]
    }
  ],
  "nodes": [
    {
      "children": [
        1
      ],
      "matrix": [
        1.0,
        0.0,
        0.0,
        0.0,
        0.0,
        2.220446049250313e-16,
        -1.0,
        0.0,
        0.0,
        1.0,
        2.220446049250313e-16,
        0.0,
        0.0,
        0.0,
        0.0,
        1.0
      ],
      "name": "Sketchfab_model"
    },
    {
      "children": [
        2,
        3,
        4,
        5
      ],
      "name": "Morena smuggler ship.obj.cleaner.materialmerger.gles"
    },
    {
      "mesh": 0,
      "name": "Object_2"
    },
    {
      "mesh": 1,
      "name": "Object_3"
    },
    {
      "mesh": 2,
      "name": "Object_4"
    },
    {
      "mesh": 3,
      "name": "Object_5"
    }
  ],
  "samplers": [
    {
      "magFilter": 9729,
      "minFilter": 9729,
      "wrapS": 10497,
      "wrapT": 10497
    }
  ],
  "scene": 0,
  "scenes": [
    {
      "name": "Sketchfab_Scene",
      "nodes": [
        0
      ]
    }
  ],
  "textures": [
    {
      "sampler": 0,
      "source": 0
    }
  ]
}
